# xmcd
#
# Track frame offsets: 
#        150
#        15838
#        32473
#        46621
#        61146
#        73873
#        89742
#        102849
#        116836
#        133304
#        150030
#
# Disc length: 2203 seconds
#
# Revision: 0
# Processed by: cddbd v1.5.2PL0 Copyright (c) Steve Scherf et al.
# Submitted via: ExactAudioCopy v1.0b1
#
DISCID=8208990b
DTITLE=Steve Williams - I Get To
DYEAR=2007
DGENRE=Country
TTITLE0=Goodbye To Henry
TTITLE1=Normal, IL
TTITLE2=The Only Way He Knew How
TTITLE3=I Get To
TTITLE4=Round Here
TTITLE5=The Wheels Turn Slow
TTITLE6=The Thought That Counts
TTITLE7=Am I Doin' It
TTITLE8=Broken Home
TTITLE9=Without Her Makeup On
TTITLE10=My Own Worst Enemy 
EXTD=
EXTT0=
EXTT1=
EXTT2=
EXTT3=
EXTT4=
EXTT5=
EXTT6=
EXTT7=
EXTT8=
EXTT9=
EXTT10=
PLAYORDER=
